<svg width="192" height="59" viewBox="0 0 192 59" fill="none" xmlns="http://www.w3.org/2000/svg">
<path d="M96.8432 18.519C98.7678 18.519 100.328 16.9581 100.328 15.0335C100.328 13.11 98.7678 11.5491 96.8432 11.5491C94.9186 11.5491 93.3587 13.11 93.3587 15.0335C93.3587 15.4563 93.4379 15.8601 93.5762 16.2358L83.4043 24.9008L70.5164 17.3198C70.5895 17.0222 70.6326 16.7117 70.6326 16.3911C70.6326 14.2451 68.8934 12.5059 66.7474 12.5059C65.8768 12.5059 65.0763 12.7954 64.4291 13.2793L52.7845 4.03315C52.8386 3.81274 52.8707 3.58432 52.8707 3.34788C52.8707 1.76394 51.5873 0.481567 50.0044 0.481567C48.4214 0.481567 47.1381 1.76495 47.1381 3.34788C47.1381 4.07823 47.4136 4.74347 47.8634 5.2494L42.0176 17.7606C41.7571 17.7155 41.4906 17.6865 41.2161 17.6865C40.3545 17.6865 39.551 17.9259 38.8607 18.3347L23.394 11.4068C23.4301 11.1814 23.4542 10.952 23.4542 10.7165C23.4542 8.33212 21.5216 6.39954 19.1372 6.39954C16.7537 6.39954 14.8202 8.33212 14.8202 10.7165C14.8202 13.101 16.7527 15.0335 19.1372 15.0335C20.4917 15.0335 21.6979 14.4094 22.4894 13.4346L37.1986 20.0228C36.8139 20.698 36.5905 21.4775 36.5905 22.311C36.5905 23.1646 36.8841 23.919 37.2858 24.6053L29.0375 32.8576C27.8994 32.0451 26.5269 31.5612 25.0271 31.5612C22.3802 31.5612 20.1029 33.065 18.9338 35.252L18.8376 35.22C18.8366 35.232 18.8336 35.243 18.8326 35.255L7.33327 30.0293C7.3493 29.8951 7.35832 29.7578 7.35832 29.6196C7.35832 27.6269 5.74333 26.0119 3.75063 26.0119C1.75794 26.0119 0.142944 27.6269 0.142944 29.6196C0.142944 31.6123 1.75794 33.2273 3.75063 33.2273C4.80659 33.2273 5.75334 32.7714 6.41257 32.0481L18.1573 37.387C18.1523 37.4 18.1483 37.412 18.1423 37.4241L18.1984 37.4431C18.1443 37.7917 18.0902 38.1384 18.0902 38.5C18.0902 40.4577 18.9047 42.2229 20.2091 43.4843L20.1921 43.4973C20.1961 43.5023 20.2001 43.5073 20.2041 43.5113L14.22 52.3297C14.0648 52.3026 13.9055 52.2856 13.7412 52.2856C12.2594 52.2856 11.0582 53.4858 11.0582 54.9686C11.0582 56.4503 12.2594 57.6515 13.7412 57.6515C15.2229 57.6515 16.4241 56.4503 16.4241 54.9686C16.4241 54.4666 16.2839 53.9978 16.0434 53.596L21.4174 45.6774L22.1287 44.7987C23.0113 45.2065 23.9912 45.4409 25.0281 45.4409C26.9336 45.4409 28.6638 44.6685 29.9201 43.4212L36.9261 48.4214C36.7268 48.9364 36.5915 49.4834 36.5915 50.0655C36.5915 52.6182 38.6603 54.6911 41.2171 54.6911C43.3801 54.6911 45.1895 53.2053 45.6964 51.2026L61.642 46.2704C62.6208 48.0888 64.5403 49.3261 66.7504 49.3261C68.0258 49.3261 69.202 48.9083 70.1597 48.21L77.293 54.8333C77.2549 55.0267 77.2339 55.2271 77.2339 55.4314C77.2339 57.1687 78.6425 58.5773 80.3797 58.5773C82.1169 58.5773 83.5245 57.1697 83.5245 55.4314C83.5245 53.6952 82.1169 52.2866 80.3797 52.2866C79.6714 52.2866 79.0192 52.523 78.4932 52.9188L71.6695 46.584C72.2226 45.6954 72.5642 44.6505 72.5642 43.5284C72.5642 40.7081 70.9001 38.3588 67.8945 37.8408V20.113C68.8964 19.9406 68.9786 19.6341 69.4104 19.2333L82.7671 27.0959L93.9669 42.78C93.8747 43.0104 93.8206 43.2619 93.8206 43.5264C93.8206 44.6534 94.7323 45.5671 95.8594 45.5671C96.9865 45.5671 97.9002 44.6534 97.9002 43.5264C97.9002 42.3993 96.9855 41.4856 95.8584 41.4856C95.8283 41.4856 95.7983 41.4886 95.7682 41.4906L85.0183 26.4427L94.9677 17.968C95.5087 18.3156 96.1519 18.519 96.8432 18.519ZM60.9497 43.5264C60.9497 43.7367 60.9627 43.9431 60.9847 44.1475L45.6814 48.8803C45.1584 46.9016 43.3611 45.4389 41.2151 45.4389C40.09 45.4389 39.0972 45.8907 38.2967 46.554L31.2456 41.5226C31.6934 40.6009 31.9639 39.5891 31.9639 38.5C31.9639 37.0053 31.476 35.6237 30.6715 34.4936L38.9198 26.2413C39.6071 26.6431 40.3605 26.9366 41.2151 26.9366C42.8601 26.9366 44.2998 26.078 45.1193 24.7856L62.3733 39.7273C61.4897 40.7462 60.9497 42.0717 60.9497 43.5264ZM65.8888 37.8388C64.887 37.939 64.7517 38.1123 64.2899 38.3418L45.8958 22.4663C45.8978 22.4142 45.8727 22.3641 45.8727 22.312C45.8727 20.8243 45.1534 19.5048 44.0634 18.6593L49.8731 6.20818C49.9192 6.21019 49.9613 6.2152 50.0074 6.2152C50.5384 6.2152 51.0323 6.06792 51.4591 5.81545L63.1017 15.0616C62.9504 15.4774 62.9885 15.9242 62.9885 16.3921C62.9885 18.1523 63.8851 19.6361 65.8888 20.114V37.8388Z" fill="url(#paint0_linear_2_13)"/>
<path d="M125.636 34.7283V16.4566H130.862V34.7283H125.636ZM128.249 13.9094C127.289 13.9094 126.507 13.6264 125.904 13.0604C125.301 12.4943 125 11.7925 125 10.9547C125 10.117 125.301 9.41509 125.904 8.84906C126.507 8.28302 127.289 8 128.249 8C129.209 8 129.991 8.2717 130.594 8.81509C131.197 9.35849 131.498 10.0377 131.498 10.8528C131.498 11.7358 131.197 12.466 130.594 13.0434C129.991 13.6208 129.209 13.9094 128.249 13.9094ZM135.719 34.7283V9.5283H140.944V34.7283H135.719ZM145.801 34.7283V16.4566H151.026V34.7283H145.801ZM148.413 13.9094C147.453 13.9094 146.672 13.6264 146.069 13.0604C145.466 12.4943 145.164 11.7925 145.164 10.9547C145.164 10.117 145.466 9.41509 146.069 8.84906C146.672 8.28302 147.453 8 148.413 8C149.373 8 150.155 8.2717 150.758 8.81509C151.361 9.35849 151.662 10.0377 151.662 10.8528C151.662 11.7358 151.361 12.466 150.758 13.0434C150.155 13.6208 149.373 13.9094 148.413 13.9094ZM161.61 16.083V16.8642H166.233V20.9396H161.744V34.7283H156.519V20.9396H153.739V16.8642H156.519V16.0491C156.519 13.966 157.128 12.3132 158.345 11.0906C159.562 9.86792 161.276 9.2566 163.486 9.2566C164.268 9.2566 165.01 9.34151 165.714 9.51132C166.417 9.68113 167.003 9.92453 167.472 10.2415L166.099 14.0792C165.496 13.6491 164.793 13.434 163.989 13.434C162.403 13.434 161.61 14.317 161.61 16.083ZM181.775 16.4566H187V34.7283H182.043V32.5547C181.35 33.3472 180.524 33.9528 179.564 34.3717C178.604 34.7906 177.565 35 176.449 35C174.082 35 172.206 34.3094 170.822 32.9283C169.437 31.5472 168.745 29.4981 168.745 26.7811V16.4566H173.97V26C173.97 28.9434 175.187 30.4151 177.621 30.4151C178.872 30.4151 179.877 30.0019 180.636 29.1755C181.395 28.3491 181.775 27.1208 181.775 25.4906V16.4566Z" fill="#3A3A3A"/>
<path d="M124.887 52C124.112 52 123.37 51.8844 122.662 51.6533C121.954 51.4221 121.4 51.1316 121 50.7818L121.581 49.7323C121.981 50.0571 122.483 50.3226 123.089 50.5288C123.694 50.7349 124.324 50.838 124.978 50.838C125.85 50.838 126.494 50.6975 126.912 50.4163C127.33 50.1352 127.539 49.7385 127.539 49.2262C127.539 48.8639 127.424 48.5797 127.194 48.3735C126.964 48.1673 126.673 48.0112 126.322 47.905C125.971 47.7988 125.504 47.6957 124.923 47.5957C124.148 47.4458 123.525 47.2927 123.052 47.1365C122.58 46.9804 122.178 46.7149 121.845 46.34C121.512 45.9652 121.345 45.4467 121.345 44.7845C121.345 43.9598 121.678 43.2851 122.344 42.7604C123.01 42.2356 123.936 41.9732 125.123 41.9732C125.741 41.9732 126.358 42.0576 126.976 42.2262C127.593 42.3949 128.102 42.6167 128.501 42.8916L127.938 43.9598C127.151 43.3976 126.213 43.1165 125.123 43.1165C124.3 43.1165 123.679 43.2664 123.261 43.5663C122.844 43.8661 122.635 44.2597 122.635 44.747C122.635 45.1218 122.753 45.4217 122.989 45.6466C123.225 45.8715 123.519 46.037 123.87 46.1432C124.221 46.2494 124.705 46.3588 125.323 46.4712C126.086 46.6212 126.697 46.7711 127.157 46.921C127.617 47.071 128.011 47.3271 128.338 47.6894C128.665 48.0518 128.828 48.5515 128.828 49.1888C128.828 50.0509 128.48 50.7349 127.784 51.241C127.088 51.747 126.122 52 124.887 52ZM139.545 46.9772L139.526 47.3896H131.535C131.607 48.4141 131.989 49.2419 132.679 49.8728C133.369 50.5038 134.241 50.8193 135.294 50.8193C135.888 50.8193 136.433 50.71 136.929 50.4913C137.426 50.2726 137.855 49.9509 138.219 49.5261L138.945 50.3882C138.521 50.913 137.992 51.3128 137.356 51.5877C136.72 51.8626 136.021 52 135.258 52C134.277 52 133.409 51.7845 132.652 51.3534C131.895 50.9224 131.305 50.3257 130.881 49.5636C130.457 48.8014 130.245 47.9393 130.245 46.9772C130.245 46.0152 130.448 45.1531 130.854 44.3909C131.259 43.6287 131.816 43.0353 132.525 42.6104C133.233 42.1856 134.029 41.9732 134.913 41.9732C135.797 41.9732 136.59 42.1856 137.292 42.6104C137.995 43.0353 138.546 43.6256 138.945 44.3815C139.345 45.1374 139.545 46.0027 139.545 46.9772ZM134.913 43.1165C133.993 43.1165 133.221 43.4195 132.597 44.0254C131.974 44.6314 131.619 45.4217 131.535 46.3963H138.31C138.225 45.4217 137.871 44.6314 137.247 44.0254C136.623 43.4195 135.845 43.1165 134.913 43.1165ZM143.413 43.9786C143.716 43.3164 144.167 42.8166 144.767 42.4793C145.366 42.1419 146.108 41.9732 146.992 41.9732V43.2664L146.683 43.2477C145.678 43.2477 144.891 43.5663 144.322 44.2035C143.752 44.8407 143.468 45.734 143.468 46.8835V51.9063H142.178V42.0482H143.413V43.9786ZM156.491 42.0482H157.762L153.512 51.9063H152.186L147.954 42.0482H149.298L152.876 50.4444L156.491 42.0482ZM159.579 51.9063V42.0482H160.868V51.9063H159.579ZM160.233 39.8929C159.966 39.8929 159.742 39.7992 159.561 39.6118C159.379 39.4244 159.288 39.1995 159.288 38.9371C159.288 38.6872 159.379 38.4685 159.561 38.2811C159.742 38.0937 159.966 38 160.233 38C160.499 38 160.723 38.0906 160.905 38.2718C161.086 38.4529 161.177 38.6685 161.177 38.9183C161.177 39.1932 161.086 39.4244 160.905 39.6118C160.723 39.7992 160.499 39.8929 160.233 39.8929ZM168.424 52C167.48 52 166.635 51.7876 165.89 51.3628C165.146 50.938 164.561 50.3414 164.138 49.573C163.714 48.8046 163.502 47.9393 163.502 46.9772C163.502 46.0152 163.714 45.1531 164.138 44.3909C164.561 43.6287 165.146 43.0353 165.89 42.6104C166.635 42.1856 167.48 41.9732 168.424 41.9732C169.248 41.9732 169.983 42.1388 170.631 42.4699C171.279 42.801 171.79 43.2851 172.166 43.9224L171.203 44.5971C170.888 44.1098 170.489 43.7443 170.004 43.5007C169.52 43.257 168.993 43.1352 168.424 43.1352C167.734 43.1352 167.113 43.2945 166.562 43.6131C166.011 43.9317 165.582 44.3846 165.273 44.9719C164.964 45.5591 164.81 46.2276 164.81 46.9772C164.81 47.7394 164.964 48.411 165.273 48.992C165.582 49.573 166.011 50.0228 166.562 50.3414C167.113 50.66 167.734 50.8193 168.424 50.8193C168.993 50.8193 169.52 50.7006 170.004 50.4632C170.489 50.2258 170.888 49.8635 171.203 49.3762L172.166 50.0509C171.79 50.6881 171.276 51.1722 170.622 51.5033C169.968 51.8344 169.235 52 168.424 52ZM182.864 46.9772L182.846 47.3896H174.854C174.927 48.4141 175.308 49.2419 175.998 49.8728C176.688 50.5038 177.56 50.8193 178.614 50.8193C179.207 50.8193 179.752 50.71 180.248 50.4913C180.745 50.2726 181.175 49.9509 181.538 49.5261L182.265 50.3882C181.841 50.913 181.311 51.3128 180.675 51.5877C180.04 51.8626 179.34 52 178.577 52C177.597 52 176.728 51.7845 175.971 51.3534C175.214 50.9224 174.624 50.3257 174.2 49.5636C173.776 48.8014 173.564 47.9393 173.564 46.9772C173.564 46.0152 173.767 45.1531 174.173 44.3909C174.578 43.6287 175.135 43.0353 175.844 42.6104C176.552 42.1856 177.348 41.9732 178.232 41.9732C179.116 41.9732 179.909 42.1856 180.612 42.6104C181.314 43.0353 181.865 43.6256 182.265 44.3815C182.664 45.1374 182.864 46.0027 182.864 46.9772ZM178.232 43.1165C177.312 43.1165 176.54 43.4195 175.916 44.0254C175.293 44.6314 174.939 45.4217 174.854 46.3963H181.629C181.544 45.4217 181.19 44.6314 180.566 44.0254C179.943 43.4195 179.165 43.1165 178.232 43.1165ZM188.059 52C187.284 52 186.542 51.8844 185.834 51.6533C185.125 51.4221 184.571 51.1316 184.172 50.7818L184.753 49.7323C185.152 50.0571 185.655 50.3226 186.26 50.5288C186.866 50.7349 187.496 50.838 188.149 50.838C189.021 50.838 189.666 50.6975 190.084 50.4163C190.502 50.1352 190.71 49.7385 190.71 49.2262C190.71 48.8639 190.595 48.5797 190.365 48.3735C190.135 48.1673 189.845 48.0112 189.493 47.905C189.142 47.7988 188.676 47.6957 188.095 47.5957C187.32 47.4458 186.696 47.2927 186.224 47.1365C185.752 46.9804 185.349 46.7149 185.016 46.34C184.683 45.9652 184.517 45.4467 184.517 44.7845C184.517 43.9598 184.85 43.2851 185.516 42.7604C186.182 42.2356 187.108 41.9732 188.295 41.9732C188.912 41.9732 189.53 42.0576 190.147 42.2262C190.765 42.3949 191.273 42.6167 191.673 42.8916L191.11 43.9598C190.323 43.3976 189.384 43.1165 188.295 43.1165C187.471 43.1165 186.851 43.2664 186.433 43.5663C186.015 43.8661 185.806 44.2597 185.806 44.747C185.806 45.1218 185.924 45.4217 186.161 45.6466C186.397 45.8715 186.69 46.037 187.041 46.1432C187.393 46.2494 187.877 46.3588 188.495 46.4712C189.257 46.6212 189.869 46.7711 190.329 46.921C190.789 47.071 191.183 47.3271 191.51 47.6894C191.837 48.0518 192 48.5515 192 49.1888C192 50.0509 191.652 50.7349 190.956 51.241C190.259 51.747 189.294 52 188.059 52Z" fill="#FF6347"/>
<defs>
<linearGradient id="paint0_linear_2_13" x1="0.142944" y1="29.5294" x2="100.328" y2="29.5294" gradientUnits="userSpaceOnUse">
<stop stop-color="#FFC04A"/>
<stop offset="1" stop-color="#FF6347"/>
</linearGradient>
</defs>
</svg>
