<svg width="256" height="256" viewBox="0 0 256 256" fill="none" xmlns="http://www.w3.org/2000/svg">
<path d="M246.963 46.5208C251.876 46.5208 255.857 42.5367 255.857 37.6244C255.857 32.7147 251.876 28.7306 246.963 28.7306C242.051 28.7306 238.069 32.7147 238.069 37.6244C238.069 38.7035 238.271 39.7341 238.624 40.693L212.661 62.8099L179.766 43.4599C179.953 42.7004 180.063 41.9077 180.063 41.0894C180.063 35.6119 175.623 31.1727 170.146 31.1727C167.924 31.1727 165.881 31.9117 164.229 33.1468L134.507 9.54672C134.645 8.98415 134.727 8.40111 134.727 7.79762C134.727 3.75474 131.451 0.481567 127.411 0.481567C123.37 0.481567 120.095 3.7573 120.095 7.79762C120.095 9.6618 120.798 11.3598 121.946 12.6511L107.025 44.585C106.36 44.4699 105.68 44.3958 104.979 44.3958C102.78 44.3958 100.729 45.0069 98.9672 46.0503L59.4897 28.3675C59.5817 27.7921 59.6431 27.2065 59.6431 26.6056C59.6431 20.5195 54.7103 15.5868 48.6243 15.5868C42.5408 15.5868 37.6054 20.5195 37.6054 26.6056C37.6054 32.6916 42.5382 37.6244 48.6243 37.6244C52.0816 37.6244 55.1604 36.0313 57.1806 33.5432L94.7249 50.3591C93.7429 52.0826 93.1727 54.0721 93.1727 56.1997C93.1727 58.3784 93.9219 60.3039 94.9474 62.0556L73.8942 83.119C70.9892 81.0451 67.4859 79.81 63.6579 79.81C56.9018 79.81 51.0894 83.6483 48.1052 89.2306L47.8597 89.1488C47.8571 89.1794 47.8495 89.2076 47.8469 89.2383L18.4957 75.9001C18.5366 75.5574 18.5597 75.2071 18.5597 74.8542C18.5597 69.768 14.4375 65.6459 9.3513 65.6459C4.2651 65.6459 0.142944 69.768 0.142944 74.8542C0.142944 79.9404 4.2651 84.0626 9.3513 84.0626C12.0466 84.0626 14.4631 82.899 16.1457 81.0528L46.1234 94.6799C46.1106 94.7132 46.1003 94.7439 46.085 94.7745L46.2282 94.8231C46.0901 95.713 45.952 96.5978 45.952 97.5209C45.952 102.518 48.031 107.023 51.3604 110.243L51.317 110.276C51.3272 110.289 51.3374 110.302 51.3477 110.312L36.0737 132.82C35.6773 132.751 35.2707 132.708 34.8514 132.708C31.0693 132.708 28.0033 135.771 28.0033 139.556C28.0033 143.338 31.0693 146.404 34.8514 146.404C38.6334 146.404 41.6995 143.338 41.6995 139.556C41.6995 138.274 41.3415 137.078 40.7277 136.052L54.4444 115.84L56.26 113.598C58.5128 114.639 61.0137 115.237 63.6604 115.237C68.5241 115.237 72.9404 113.265 76.1471 110.082L94.0293 122.845C93.5205 124.159 93.1752 125.555 93.1752 127.041C93.1752 133.557 98.4558 138.847 104.982 138.847C110.503 138.847 115.121 135.055 116.415 129.943L157.115 117.354C159.613 121.996 164.513 125.154 170.154 125.154C173.409 125.154 176.411 124.087 178.856 122.305L197.063 139.21C196.966 139.704 196.912 140.215 196.912 140.737C196.912 145.171 200.507 148.767 204.941 148.767C209.375 148.767 212.968 145.174 212.968 140.737C212.968 136.305 209.375 132.71 204.941 132.71C203.133 132.71 201.469 133.314 200.126 134.324L182.709 118.155C184.121 115.887 184.993 113.219 184.993 110.355C184.993 103.157 180.745 97.1604 173.074 95.8383V50.5892C175.631 50.1494 175.841 49.3669 176.943 48.3441L211.035 68.4127L239.622 108.445C239.386 109.033 239.248 109.675 239.248 110.35C239.248 113.227 241.575 115.559 244.452 115.559C247.329 115.559 249.661 113.227 249.661 110.35C249.661 107.473 247.326 105.141 244.45 105.141C244.373 105.141 244.296 105.149 244.219 105.154L216.781 66.7454L242.176 45.1144C243.557 46.0017 245.199 46.5208 246.963 46.5208ZM155.348 110.35C155.348 110.887 155.381 111.414 155.437 111.936L116.376 124.016C115.042 118.965 110.454 115.232 104.977 115.232C102.105 115.232 99.5707 116.385 97.5275 118.078L79.5302 105.236C80.6732 102.883 81.3637 100.301 81.3637 97.5209C81.3637 93.7056 80.1183 90.1793 78.0649 87.2948L99.1181 66.2314C100.872 67.2569 102.795 68.0061 104.977 68.0061C109.175 68.0061 112.85 65.8146 114.942 62.5159L158.981 100.653C156.726 103.254 155.348 106.637 155.348 110.35ZM167.954 95.8332C165.397 96.0889 165.052 96.5313 163.873 97.1169L116.924 56.596C116.929 56.4631 116.865 56.3352 116.865 56.2022C116.865 52.4048 115.029 49.037 112.247 46.8788L127.076 15.0983C127.193 15.1034 127.301 15.1162 127.418 15.1162C128.774 15.1162 130.034 14.7403 131.124 14.0959L160.84 37.696C160.454 38.7572 160.551 39.8977 160.551 41.0919C160.551 45.5849 162.84 49.372 167.954 50.5918V95.8332Z" fill="url(#paint0_linear_2_7)"/>
<path d="M55.7171 216.66V175.443H67.6685V216.66H55.7171ZM61.6928 169.697C59.4966 169.697 57.709 169.059 56.33 167.782C54.951 166.505 54.2615 164.922 54.2615 163.032C54.2615 161.142 54.951 159.559 56.33 158.282C57.709 157.005 59.4966 156.367 61.6928 156.367C63.889 156.367 65.6766 156.98 67.0556 158.205C68.4346 159.431 69.1241 160.963 69.1241 162.802C69.1241 164.794 68.4346 166.441 67.0556 167.743C65.6766 169.046 63.889 169.697 61.6928 169.697ZM78.7771 216.66V159.814H90.7285V216.66H78.7771ZM101.837 216.66V175.443H113.789V216.66H101.837ZM107.813 169.697C105.617 169.697 103.829 169.059 102.45 167.782C101.071 166.505 100.382 164.922 100.382 163.032C100.382 161.142 101.071 159.559 102.45 158.282C103.829 157.005 105.617 156.367 107.813 156.367C110.009 156.367 111.797 156.98 113.176 158.205C114.555 159.431 115.244 160.963 115.244 162.802C115.244 164.794 114.555 166.441 113.176 167.743C111.797 169.046 110.009 169.697 107.813 169.697ZM137.998 174.6V176.362H148.57V185.556H138.304V216.66H126.353V185.556H119.994V176.362H126.353V174.524C126.353 169.825 127.745 166.096 130.528 163.338C133.312 160.58 137.232 159.201 142.288 159.201C144.076 159.201 145.774 159.393 147.383 159.776C148.991 160.159 150.332 160.708 151.405 161.423L148.264 170.08C146.885 169.11 145.276 168.625 143.437 168.625C139.811 168.625 137.998 170.616 137.998 174.6ZM184.118 175.443H196.069V216.66H184.731V211.757C183.147 213.544 181.258 214.911 179.061 215.855C176.865 216.8 174.49 217.273 171.937 217.273C166.523 217.273 162.233 215.715 159.066 212.599C155.899 209.484 154.316 204.862 154.316 198.733V175.443H166.267V196.971C166.267 203.61 169.051 206.93 174.618 206.93C177.478 206.93 179.777 205.998 181.513 204.134C183.25 202.27 184.118 199.499 184.118 195.822V175.443Z" fill="#3A3A3A"/>
<path d="M55.1519 255.724C53.3963 255.724 51.7162 255.47 50.1116 254.963C48.5069 254.456 47.2519 253.818 46.3467 253.05L47.6634 250.746C48.5686 251.459 49.707 252.042 51.0785 252.494C52.45 252.947 53.8764 253.173 55.3576 253.173C57.3326 253.173 58.7933 252.865 59.7396 252.247C60.686 251.63 61.1591 250.759 61.1591 249.635C61.1591 248.839 60.8985 248.215 60.3774 247.763C59.8562 247.31 59.1979 246.967 58.4024 246.734C57.6069 246.501 56.5508 246.274 55.2342 246.055C53.4786 245.726 52.066 245.39 50.9962 245.047C49.9264 244.704 49.0143 244.121 48.26 243.298C47.5057 242.475 47.1285 241.337 47.1285 239.883C47.1285 238.073 47.8828 236.592 49.3915 235.439C50.9002 234.287 52.9986 233.711 55.6868 233.711C57.0857 233.711 58.4847 233.897 59.8836 234.267C61.2826 234.637 62.4346 235.124 63.3398 235.728L62.0643 238.073C60.2814 236.838 58.1555 236.221 55.6868 236.221C53.8215 236.221 52.4157 236.55 51.4694 237.209C50.523 237.867 50.0498 238.731 50.0498 239.801C50.0498 240.624 50.3173 241.282 50.8522 241.776C51.3871 242.27 52.0523 242.633 52.8477 242.866C53.6432 243.099 54.7404 243.339 56.1394 243.586C57.8675 243.915 59.2527 244.245 60.2951 244.574C61.3374 244.903 62.2289 245.465 62.9695 246.261C63.7101 247.056 64.0805 248.153 64.0805 249.552C64.0805 251.445 63.2918 252.947 61.7146 254.058C60.1373 255.169 57.9498 255.724 55.1519 255.724ZM88.3563 244.697L88.3152 245.602H70.2111C70.3757 247.852 71.2398 249.669 72.8033 251.054C74.3668 252.439 76.3418 253.132 78.7283 253.132C80.0723 253.132 81.3067 252.892 82.4313 252.412C83.556 251.932 84.5298 251.226 85.3527 250.293L86.9985 252.186C86.0384 253.338 84.8384 254.216 83.3983 254.819C81.9582 255.422 80.3741 255.724 78.646 255.724C76.4241 255.724 74.456 255.251 72.7416 254.305C71.0272 253.358 69.69 252.049 68.7299 250.375C67.7698 248.702 67.2898 246.809 67.2898 244.697C67.2898 242.585 67.7493 240.692 68.6682 239.019C69.5871 237.346 70.8489 236.043 72.4536 235.11C74.0582 234.178 75.8618 233.711 77.8642 233.711C79.8666 233.711 81.6633 234.178 83.2543 235.11C84.8452 236.043 86.0933 237.339 86.9985 238.999C87.9037 240.658 88.3563 242.558 88.3563 244.697ZM77.8642 236.221C75.7795 236.221 74.0308 236.886 72.6181 238.217C71.2055 239.547 70.4031 241.282 70.2111 243.422H85.5584C85.3664 241.282 84.5641 239.547 83.1514 238.217C81.7387 236.886 79.9763 236.221 77.8642 236.221ZM97.1203 238.114C97.8061 236.66 98.8278 235.563 100.186 234.822C101.543 234.082 103.224 233.711 105.226 233.711V236.55L104.526 236.509C102.25 236.509 100.467 237.209 99.1776 238.608C97.8883 240.007 97.2437 241.968 97.2437 244.491V255.518H94.3224V233.876H97.1203V238.114ZM126.745 233.876H129.625L119.997 255.518H116.994L107.407 233.876H110.451L118.557 252.309L126.745 233.876ZM133.74 255.518V233.876H136.661V255.518H133.74ZM135.221 229.144C134.618 229.144 134.11 228.938 133.699 228.527C133.287 228.116 133.081 227.622 133.081 227.046C133.081 226.497 133.287 226.017 133.699 225.606C134.11 225.194 134.618 224.989 135.221 224.989C135.825 224.989 136.332 225.187 136.743 225.585C137.155 225.983 137.361 226.456 137.361 227.005C137.361 227.608 137.155 228.116 136.743 228.527C136.332 228.938 135.825 229.144 135.221 229.144ZM153.778 255.724C151.638 255.724 149.725 255.258 148.038 254.325C146.351 253.393 145.027 252.083 144.067 250.396C143.107 248.709 142.627 246.809 142.627 244.697C142.627 242.585 143.107 240.692 144.067 239.019C145.027 237.346 146.351 236.043 148.038 235.11C149.725 234.178 151.638 233.711 153.778 233.711C155.643 233.711 157.309 234.075 158.777 234.802C160.244 235.529 161.403 236.592 162.254 237.991L160.073 239.472C159.36 238.402 158.455 237.6 157.357 237.065C156.26 236.53 155.067 236.262 153.778 236.262C152.214 236.262 150.808 236.612 149.56 237.312C148.312 238.011 147.338 239.005 146.639 240.295C145.939 241.584 145.59 243.051 145.59 244.697C145.59 246.37 145.939 247.845 146.639 249.12C147.338 250.396 148.312 251.383 149.56 252.083C150.808 252.782 152.214 253.132 153.778 253.132C155.067 253.132 156.26 252.871 157.357 252.35C158.455 251.829 159.36 251.034 160.073 249.964L162.254 251.445C161.403 252.844 160.238 253.907 158.756 254.634C157.275 255.361 155.615 255.724 153.778 255.724ZM186.488 244.697L186.447 245.602H168.343C168.508 247.852 169.372 249.669 170.935 251.054C172.499 252.439 174.474 253.132 176.86 253.132C178.204 253.132 179.439 252.892 180.563 252.412C181.688 251.932 182.662 251.226 183.485 250.293L185.131 252.186C184.17 253.338 182.97 254.216 181.53 254.819C180.09 255.422 178.506 255.724 176.778 255.724C174.556 255.724 172.588 255.251 170.874 254.305C169.159 253.358 167.822 252.049 166.862 250.375C165.902 248.702 165.422 246.809 165.422 244.697C165.422 242.585 165.881 240.692 166.8 239.019C167.719 237.346 168.981 236.043 170.586 235.11C172.19 234.178 173.994 233.711 175.996 233.711C177.999 233.711 179.795 234.178 181.386 235.11C182.977 236.043 184.225 237.339 185.131 238.999C186.036 240.658 186.488 242.558 186.488 244.697ZM175.996 236.221C173.912 236.221 172.163 236.886 170.75 238.217C169.338 239.547 168.535 241.282 168.343 243.422H183.69C183.498 241.282 182.696 239.547 181.283 238.217C179.871 236.886 178.108 236.221 175.996 236.221ZM198.256 255.724C196.5 255.724 194.82 255.47 193.216 254.963C191.611 254.456 190.356 253.818 189.451 253.05L190.767 250.746C191.673 251.459 192.811 252.042 194.183 252.494C195.554 252.947 196.98 253.173 198.462 253.173C200.437 253.173 201.897 252.865 202.844 252.247C203.79 251.63 204.263 250.759 204.263 249.635C204.263 248.839 204.003 248.215 203.481 247.763C202.96 247.31 202.302 246.967 201.506 246.734C200.711 246.501 199.655 246.274 198.338 246.055C196.583 245.726 195.17 245.39 194.1 245.047C193.03 244.704 192.118 244.121 191.364 243.298C190.61 242.475 190.233 241.337 190.233 239.883C190.233 238.073 190.987 236.592 192.496 235.439C194.004 234.287 196.103 233.711 198.791 233.711C200.19 233.711 201.589 233.897 202.988 234.267C204.387 234.637 205.539 235.124 206.444 235.728L205.168 238.073C203.385 236.838 201.26 236.221 198.791 236.221C196.926 236.221 195.52 236.55 194.573 237.209C193.627 237.867 193.154 238.731 193.154 239.801C193.154 240.624 193.421 241.282 193.956 241.776C194.491 242.27 195.156 242.633 195.952 242.866C196.747 243.099 197.844 243.339 199.243 243.586C200.972 243.915 202.357 244.245 203.399 244.574C204.441 244.903 205.333 245.465 206.074 246.261C206.814 247.056 207.185 248.153 207.185 249.552C207.185 251.445 206.396 252.947 204.819 254.058C203.241 255.169 201.054 255.724 198.256 255.724Z" fill="#FF6347"/>
<defs>
<linearGradient id="paint0_linear_2_7" x1="0.142944" y1="74.6241" x2="255.857" y2="74.6241" gradientUnits="userSpaceOnUse">
<stop stop-color="#FFC04A"/>
<stop offset="1" stop-color="#FF6347"/>
</linearGradient>
</defs>
</svg>
