<svg xmlns="http://www.w3.org/2000/svg" width="512" height="512" viewBox="0 0 512 512" data-svgdocument="" id="_lozZXmrQ4Bjc2v8Jjk5tP" class="fl-svgdocument" x="0" y="0" style="" xmlns:xlink="http://www.w3.org/1999/xlink">
  <defs id="_OCOhh_n_vN0Rio0Fz3bQR" transform="matrix(0.7754893344140974, 0, 0, 0.7754893344140974, -81.92650430207993, 101.79068281867556)">
    <linearGradient id="linearGradientSke8mc8dclee" x1="0" y1="0.5" x2="1" y2="0.5">
      <stop id="_BHsq4p1qAd5KargPr_mGY" offset="0%" stop-color="#ffc04a" />
      <stop id="_Fil-3fkmygADUM_R7pzLf" offset="100%" stop-color="#ff6347" />
    </linearGradient>
  </defs>
  <path id="_tMLbDoPeHYDf8vvgFsJ3A" fill="url('#linearGradientSke8mc8dclee')" d="M96.897,37.513c1.921,0,3.478-1.558,3.478-3.479c0-1.92-1.557-3.478-3.478-3.478s-3.478,1.558-3.478,3.478  c0,0.422,0.079,0.825,0.217,1.2l-10.153,8.649l-12.864-7.567c0.073-0.297,0.116-0.607,0.116-0.927c0-2.142-1.736-3.878-3.878-3.878  c-0.869,0-1.668,0.289-2.314,0.772L52.92,23.054c0.054-0.22,0.086-0.448,0.086-0.684c0-1.581-1.281-2.861-2.861-2.861  s-2.861,1.281-2.861,2.861c0,0.729,0.275,1.393,0.724,1.898l-5.835,12.488c-0.26-0.045-0.526-0.074-0.8-0.074  c-0.86,0-1.662,0.239-2.351,0.647l-15.438-6.915c0.036-0.225,0.06-0.454,0.06-0.689c0-2.38-1.929-4.309-4.309-4.309  c-2.379,0-4.309,1.929-4.309,4.309s1.929,4.309,4.309,4.309c1.352,0,2.556-0.623,3.346-1.596l14.682,6.576  c-0.384,0.674-0.607,1.452-0.607,2.284c0,0.852,0.293,1.605,0.694,2.29l-8.233,8.237c-1.136-0.811-2.506-1.294-4.003-1.294  c-2.642,0-4.915,1.501-6.082,3.684l-0.096-0.032c-0.001,0.012-0.004,0.023-0.005,0.035L7.553,49.002  c0.016-0.134,0.025-0.271,0.025-0.409c0-1.989-1.612-3.601-3.601-3.601s-3.601,1.612-3.601,3.601s1.612,3.601,3.601,3.601  c1.054,0,1.999-0.455,2.657-1.177l11.723,5.329c-0.005,0.013-0.009,0.025-0.015,0.037l0.056,0.019  c-0.054,0.348-0.108,0.694-0.108,1.055c0,1.954,0.813,3.716,2.115,4.975l-0.017,0.013c0.004,0.005,0.008,0.01,0.012,0.014  l-5.973,8.802c-0.155-0.027-0.314-0.044-0.478-0.044c-1.479,0-2.678,1.198-2.678,2.678c0,1.479,1.199,2.678,2.678,2.678  c1.479,0,2.678-1.199,2.678-2.678c0-0.501-0.14-0.969-0.38-1.37l5.364-7.904l0.71-0.877c0.881,0.407,1.859,0.641,2.894,0.641  c1.902,0,3.629-0.771,4.883-2.016l6.993,4.991c-0.199,0.514-0.334,1.06-0.334,1.641c0,2.548,2.065,4.617,4.617,4.617  c2.159,0,3.965-1.483,4.471-3.482l15.916-4.923c0.977,1.815,2.893,3.05,5.099,3.05c1.273,0,2.447-0.417,3.403-1.114l7.12,6.611  c-0.038,0.193-0.059,0.393-0.059,0.597c0,1.734,1.406,3.14,3.14,3.14s3.139-1.405,3.139-3.14c0-1.733-1.405-3.139-3.139-3.139  c-0.707,0-1.358,0.236-1.883,0.631l-6.811-6.323c0.552-0.887,0.893-1.93,0.893-3.05c0-2.815-1.661-5.16-4.661-5.677V39.104  c1-0.172,1.082-0.478,1.513-0.878l13.332,7.848l11.179,15.655c-0.092,0.23-0.146,0.481-0.146,0.745c0,1.125,0.91,2.037,2.035,2.037  s2.037-0.912,2.037-2.037s-0.913-2.037-2.038-2.037c-0.03,0-0.06,0.003-0.09,0.005L85.094,45.422l9.931-8.459  C95.565,37.31,96.207,37.513,96.897,37.513z M61.07,62.474c0,0.21,0.013,0.416,0.035,0.62l-15.275,4.724  c-0.522-1.975-2.316-3.435-4.458-3.435c-1.123,0-2.114,0.451-2.913,1.113l-7.038-5.022c0.447-0.92,0.717-1.93,0.717-3.017  c0-1.492-0.487-2.871-1.29-3.999l8.233-8.237c0.686,0.401,1.438,0.694,2.291,0.694c1.642,0,3.079-0.857,3.897-2.147l17.222,14.914  C61.609,59.699,61.07,61.022,61.07,62.474z M66,56.797c-1,0.1-1.135,0.273-1.596,0.502l-18.36-15.846  c0.002-0.052-0.023-0.102-0.023-0.154c0-1.485-0.718-2.802-1.806-3.646l5.799-12.428c0.046,0.002,0.088,0.007,0.134,0.007  c0.53,0,1.023-0.147,1.449-0.399l11.621,9.229c-0.151,0.415-0.113,0.861-0.113,1.328c0,1.757,0.895,3.238,2.895,3.715V56.797z" transform="matrix(2.55716691703507, 0, 0, 2.55716691703507, 127.18144005071653, 78.59379582920661)" />
  <path text="ilifu" text-anchor="middle" font-size="100" letter-spacing="0" side="left" offset="0.5" dx="0" dy="0" space="preserve" href="" font-family="Montserrat" font-scale="contain" transform="matrix(0.7661141804788214, 0, 0, 0.7661141804788214, 253.93148236072744, 344.65986187334295)" x="0" y="0" fill="#3a3a3a" font-weight="700" data-fl-textpath="" id="_bACKzYL2clyS4dqlExFb0" d="M-91.64999999999999 0L-91.64999999999999-53.8L-76.05-53.8L-76.05 0L-91.64999999999999 0ZM-83.85-61.3Q-88.14999999999999-61.3 -90.85-63.8Q-93.55-66.3 -93.55-70L-93.55-70Q-93.55-73.7 -90.85-76.2Q-88.14999999999999-78.7 -83.85-78.7L-83.85-78.7Q-79.55-78.7 -76.85-76.3Q-74.14999999999999-73.9 -74.14999999999999-70.3L-74.14999999999999-70.3Q-74.14999999999999-66.4 -76.85-63.85Q-79.55-61.3 -83.85-61.3L-83.85-61.3ZM-61.55 0L-61.55-74.2L-45.95-74.2L-45.95 0L-61.55 0ZM-31.45 0L-31.45-53.8L-15.849999999999998-53.8L-15.849999999999998 0L-31.45 0ZM-23.65-61.3Q-27.95-61.3 -30.65-63.8Q-33.35-66.3 -33.35-70L-33.35-70Q-33.35-73.7 -30.65-76.2Q-27.95-78.7 -23.65-78.7L-23.65-78.7Q-19.349999999999998-78.7 -16.65-76.3Q-13.95-73.9 -13.95-70.3L-13.95-70.3Q-13.95-66.4 -16.65-63.85Q-19.349999999999998-61.3 -23.65-61.3L-23.65-61.3ZM 15.750000000000004-54.9L 15.750000000000004-52.6L 29.550000000000004-52.6L 29.550000000000004-40.6L 16.150000000000002-40.6L 16.150000000000002 0L 0.5500000000000025 0L 0.5500000000000025-40.6L-7.749999999999997-40.6L-7.749999999999997-52.6L 0.5500000000000025-52.6L 0.5500000000000025-55Q 0.5500000000000025-64.2  6.0000000000000036-69.6Q 11.450000000000003-75  21.35-75L 21.35-75Q 24.85-75  28-74.25Q 31.150000000000006-73.5  33.25-72.1L 33.25-72.1L 29.150000000000006-60.8Q 26.450000000000003-62.7  22.85-62.7L 22.85-62.7Q 15.750000000000004-62.7  15.750000000000004-54.9L 15.750000000000004-54.9ZM 75.94999999999999-53.8L 91.55-53.8L 91.55 0L 76.75 0L 76.75-6.4Q 73.65-2.9  69.35-1.05Q 65.05 0.8  60.05 0.8L 60.05 0.8Q 49.45 0.8  43.25-5.3Q 37.05-11.4  37.05-23.4L 37.05-23.4L 37.05-53.8L 52.65-53.8L 52.65-25.7Q 52.65-12.7  63.55-12.7L 63.55-12.7Q 69.15-12.7  72.55-16.35Q 75.94999999999999-20  75.94999999999999-27.2L 75.94999999999999-27.2L 75.94999999999999-53.8Z" />
  <path text="services" text-anchor="middle" font-size="100" letter-spacing="0" side="left" offset="0.5" dx="0" dy="0" space="preserve" href="" font-family="Montserrat" font-scale="contain" transform="matrix(0.4114550815616767, 0, 0, 0.4114550815616767, 254.8890859003815, 383.5184327963734)" x="0" y="0" fill="#ff6347" data-fl-textpath="" id="_BV8dN3jNM7w4h0tzBWsKw" d="M-174.35000000000002 0.5Q-180.75000000000003 0.5 -186.60000000000002-1.35Q-192.45000000000002-3.2 -195.75000000000003-6L-195.75000000000003-6L-192.55-11.6Q-189.25000000000003-9 -184.25000000000003-7.35Q-179.25000000000003-5.7 -173.85000000000002-5.7L-173.85000000000002-5.7Q-166.65000000000003-5.7 -163.20000000000002-7.95Q-159.75000000000003-10.2 -159.75000000000003-14.3L-159.75000000000003-14.3Q-159.75000000000003-17.2 -161.65000000000003-18.85Q-163.55-20.5 -166.45000000000002-21.35Q-169.35000000000002-22.2 -174.15000000000003-23L-174.15000000000003-23Q-180.55-24.2 -184.45000000000002-25.45Q-188.35000000000002-26.7 -191.10000000000002-29.7Q-193.85000000000002-32.7 -193.85000000000002-38L-193.85000000000002-38Q-193.85000000000002-44.6 -188.35000000000002-48.8Q-182.85000000000002-53 -173.05-53L-173.05-53Q-167.95000000000002-53 -162.85000000000002-51.65Q-157.75000000000003-50.3 -154.45000000000002-48.1L-154.45000000000002-48.1L-157.55-42.4Q-164.05-46.9 -173.05-46.9L-173.05-46.9Q-179.85000000000002-46.9 -183.3-44.5Q-186.75000000000003-42.1 -186.75000000000003-38.2L-186.75000000000003-38.2Q-186.75000000000003-35.2 -184.8-33.4Q-182.85000000000002-31.6 -179.95000000000002-30.75Q-177.05-29.9 -171.95000000000002-29L-171.95000000000002-29Q-165.65000000000003-27.8 -161.85000000000002-26.6Q-158.05-25.4 -155.35000000000002-22.5Q-152.65000000000003-19.6 -152.65000000000003-14.5L-152.65000000000003-14.5Q-152.65000000000003-7.6 -158.40000000000003-3.55Q-164.15000000000003 0.5 -174.35000000000002 0.5L-174.35000000000002 0.5ZM-93.65000000000002-26.3L-93.75000000000001-24.1L-137.75000000000003-24.1Q-137.15-15.9 -131.45000000000002-10.85Q-125.75000000000001-5.8 -117.05000000000001-5.8L-117.05000000000001-5.8Q-112.15000000000002-5.8 -108.05000000000001-7.55Q-103.95000000000002-9.3 -100.95000000000002-12.7L-100.95000000000002-12.7L-96.95000000000002-8.1Q-100.45000000000002-3.9 -105.70000000000002-1.7Q-110.95000000000002 0.5 -117.25000000000001 0.5L-117.25000000000001 0.5Q-125.35000000000002 0.5 -131.60000000000002-2.95Q-137.85000000000002-6.4 -141.35000000000002-12.5Q-144.85000000000002-18.6 -144.85000000000002-26.3L-144.85000000000002-26.3Q-144.85000000000002-34 -141.50000000000003-40.1Q-138.15-46.2 -132.3-49.6Q-126.45000000000002-53 -119.15000000000002-53L-119.15000000000002-53Q-111.85000000000002-53 -106.05000000000001-49.6Q-100.25000000000001-46.2 -96.95000000000002-40.15Q-93.65000000000002-34.1 -93.65000000000002-26.3L-93.65000000000002-26.3ZM-119.15000000000002-46.9Q-126.75000000000001-46.9 -131.9-42.05Q-137.05-37.2 -137.75000000000003-29.4L-137.75000000000003-29.4L-100.45000000000002-29.4Q-101.15000000000002-37.2 -106.30000000000001-42.05Q-111.45000000000002-46.9 -119.15000000000002-46.9L-119.15000000000002-46.9ZM-72.35000000000001-42.3Q-69.85000000000001-47.6 -64.9-50.3Q-59.95000000000001-53 -52.65000000000001-53L-52.65000000000001-53L-52.65000000000001-46.1L-54.35000000000001-46.2Q-62.65000000000001-46.2 -67.35000000000001-41.1Q-72.05000000000001-36 -72.05000000000001-26.8L-72.05000000000001-26.8L-72.05000000000001 0L-79.15 0L-79.15-52.6L-72.35000000000001-52.6L-72.35000000000001-42.3ZM-0.3500000000000085-52.6L 6.6499999999999915-52.6L-16.75000000000001 0L-24.05000000000001 0L-47.35000000000001-52.6L-39.95000000000001-52.6L-20.25000000000001-7.8L-0.3500000000000085-52.6ZM 16.649999999999995 0L 16.649999999999995-52.6L 23.749999999999993-52.6L 23.749999999999993 0L 16.649999999999995 0ZM 20.249999999999993-64.1Q 18.049999999999997-64.1  16.549999999999997-65.6Q 15.049999999999995-67.1  15.049999999999995-69.2L 15.049999999999995-69.2Q 15.049999999999995-71.2  16.549999999999997-72.7Q 18.049999999999997-74.2  20.249999999999993-74.2L 20.249999999999993-74.2Q 22.449999999999996-74.2  23.949999999999996-72.75Q 25.449999999999996-71.3  25.449999999999996-69.3L 25.449999999999996-69.3Q 25.449999999999996-67.1  23.949999999999996-65.6Q 22.449999999999996-64.1  20.249999999999993-64.1L 20.249999999999993-64.1ZM 65.35 0.5Q 57.54999999999999 0.5  51.39999999999999-2.9Q 45.24999999999999-6.3  41.74999999999999-12.45Q 38.24999999999999-18.6  38.24999999999999-26.3L 38.24999999999999-26.3Q 38.24999999999999-34  41.74999999999999-40.1Q 45.24999999999999-46.2  51.39999999999999-49.6Q 57.54999999999999-53  65.35-53L 65.35-53Q 72.14999999999999-53  77.5-50.35Q 82.85-47.7  85.94999999999999-42.6L 85.94999999999999-42.6L 80.64999999999999-39Q 78.04999999999998-42.9  74.04999999999998-44.85Q 70.04999999999998-46.8  65.35-46.8L 65.35-46.8Q 59.64999999999999-46.8  55.099999999999994-44.25Q 50.54999999999999-41.7  47.99999999999999-37Q 45.44999999999999-32.3  45.44999999999999-26.3L 45.44999999999999-26.3Q 45.44999999999999-20.2  47.99999999999999-15.55Q 50.54999999999999-10.9  55.099999999999994-8.35Q 59.64999999999999-5.8  65.35-5.8L 65.35-5.8Q 70.04999999999998-5.8  74.04999999999998-7.7Q 78.04999999999998-9.6  80.64999999999999-13.5L 80.64999999999999-13.5L 85.94999999999999-9.9Q 82.85-4.8  77.44999999999999-2.15Q 72.04999999999998 0.5  65.35 0.5L 65.35 0.5ZM 144.85-26.3L 144.75-24.1L 100.75-24.1Q 101.35-15.9  107.05-10.85Q 112.75-5.8  121.44999999999999-5.8L 121.44999999999999-5.8Q 126.35-5.8  130.45-7.55Q 134.55-9.3  137.55-12.7L 137.55-12.7L 141.55-8.1Q 138.05-3.9  132.8-1.7Q 127.55 0.5  121.25 0.5L 121.25 0.5Q 113.15 0.5  106.9-2.95Q 100.64999999999999-6.4  97.14999999999999-12.5Q 93.64999999999999-18.6  93.64999999999999-26.3L 93.64999999999999-26.3Q 93.64999999999999-34  97-40.1Q 100.35-46.2  106.19999999999999-49.6Q 112.05-53  119.35-53L 119.35-53Q 126.65-53  132.45-49.6Q 138.25-46.2  141.55-40.15Q 144.85-34.1  144.85-26.3L 144.85-26.3ZM 119.35-46.9Q 111.75-46.9  106.6-42.05Q 101.45-37.2  100.75-29.4L 100.75-29.4L 138.05-29.4Q 137.35-37.2  132.2-42.05Q 127.05-46.9  119.35-46.9L 119.35-46.9ZM 173.45 0.5Q 167.04999999999998 0.5  161.2-1.35Q 155.35-3.2  152.04999999999998-6L 152.04999999999998-6L 155.25-11.6Q 158.54999999999998-9  163.54999999999998-7.35Q 168.54999999999998-5.7  173.95-5.7L 173.95-5.7Q 181.14999999999998-5.7  184.6-7.95Q 188.04999999999998-10.2  188.04999999999998-14.3L 188.04999999999998-14.3Q 188.04999999999998-17.2  186.14999999999998-18.85Q 184.25-20.5  181.35-21.35Q 178.45-22.2  173.64999999999998-23L 173.64999999999998-23Q 167.25-24.2  163.35-25.45Q 159.45-26.7  156.7-29.7Q 153.95-32.7  153.95-38L 153.95-38Q 153.95-44.6  159.45-48.8Q 164.95-53  174.75-53L 174.75-53Q 179.85-53  184.95-51.65Q 190.04999999999998-50.3  193.35-48.1L 193.35-48.1L 190.25-42.4Q 183.75-46.9  174.75-46.9L 174.75-46.9Q 167.95-46.9  164.5-44.5Q 161.04999999999998-42.1  161.04999999999998-38.2L 161.04999999999998-38.2Q 161.04999999999998-35.2  163-33.4Q 164.95-31.6  167.85-30.75Q 170.75-29.9  175.85-29L 175.85-29Q 182.14999999999998-27.8  185.95-26.6Q 189.75-25.4  192.45-22.5Q 195.14999999999998-19.6  195.14999999999998-14.5L 195.14999999999998-14.5Q 195.14999999999998-7.6  189.39999999999998-3.55Q 183.64999999999998 0.5  173.45 0.5L 173.45 0.5Z" />
</svg>